<svg class="svg-icon" style="width: 1em; height: 1em;vertical-align: middle;fill: currentColor;overflow: hidden;" viewBox="0 0 1024 1024" version="1.1" xmlns="http://www.w3.org/2000/svg"><path d="M692.8 236.8s9 47.3-0.4 72.7C683 334.8 611.5 427 547.8 461.7 484 496.5 396 521.2 305.7 494.2c-90.2-27.1-110.9-33-130.6-33.3-19.7-0.4-45.8-9.1-45.8-9.1l-10.3 8.4s31.8 19.2 48.4 29.6c16.6 10.4 128.9 74.4 250.1 59.1 121.2-15.3 217.7-71 260.9-144.9 43.2-73.9 47.1-124.9 41.9-149.6l-27.5-17.6z" fill="#FFE361" /><path d="M754.6 293.9c-1.8-21.5 9.3-61.4 9.3-61.4s-13.7 8.1-18.8 12.7c-5.1 4.7-25 9.1-25 9.1 5.3 24.7 1.3 75.7-41.9 149.6-43.2 73.9-139.7 129.5-260.9 144.9-121.2 15.3-233.5-48.7-250.1-59.1-16.6-10.4-48.4-29.6-48.4-29.6l-19.1 26.1s29.8 115.3 138.5 158.2c108.7 42.8 145.9 36.4 231.3 24.4s218.7-65.4 270.1-131.3c51.5-65.9 57-130.4 47.9-165.8-8.9-35.5-31.1-56.3-32.9-77.8z" fill="#CD9E08" /><path d="M713.6 486.3c51.5-65.9 57-130.4 47.9-165.8-7.8-30.5-25.4-50.1-31.3-68.7-5.4 1.6-10 2.6-10 2.6 5.3 24.7 1.3 75.7-41.9 149.6-43.2 73.9-139.7 129.5-260.9 144.9-121.2 15.3-233.5-48.7-250.1-59.1-16.6-10.4-48.4-29.6-48.4-29.6l-19.1 26.1s1.7 6.7 5.9 17.5c21.3 32.8 55 69.2 106.4 89.4C320.8 636 358 629.6 443.4 617.6c85.5-12 218.7-65.5 270.2-131.3z" fill="#F6B71E" /><path d="M691.6 220.8l4.9 63.2 24.8 2.2 5-58.6z" fill="#976F18" /><path d="M754.4 287.1l-33.1-0.9 5-58.6 40.7-8.7" fill="#583026" /><path d="M691.6 220.8l34.7 6.8 40.7-8.7-34.3-9.5z" fill="#A36050" /><path d="M139.1 454.4l-15-4.9-10.6 7.3L98 481.7l5.4 15.4 21.9-33.2z" fill="#583026" /><path d="M713.7 238.9s21.5 43.1 19.3 70c-2.2 26.9-46 135-98 185.7-52 50.7-130 98.5-224.2 96.8-94.2-1.6-115.7-1.7-134.8 3.3-19.1 5-46.6 3.6-46.6 3.6l-7.7 10.9s35.8 9.8 54.6 15.4c18.8 5.5 144.2 36.7 256.7-10.8 112.6-47.5 190.5-127.2 212-210.1 21.6-82.8 11.6-133-0.2-155.3l-31.1-9.5z" fill="#FFE361" /><path d="M788.7 277.2c-7.5-20.2-7.6-61.6-7.6-61.6s-11 11.5-14.6 17.3c-3.6 5.9-21.6 15.5-21.6 15.5 11.8 22.4 21.8 72.5 0.2 155.3-21.6 82.9-99.4 162.6-211.9 210.1-112.5 47.6-238 16.4-256.7 10.8-18.8-5.5-54.6-15.4-54.6-15.4l-11.3 30.3s59.9 102.9 176.2 114.7c116.2 11.8 150.3-4.5 229.3-39.1 79-34.7 192.8-122.2 224.5-199.6 31.7-77.4 19.6-141 1.2-172.6-18.5-31.5-45.6-45.5-53.1-65.7z" fill="#CD9E08" /><path d="M801.3 473.4c31.7-77.4 19.6-141 1.2-172.6-15.8-27.2-38-41.4-48.7-57.7-4.7 3-8.9 5.2-8.9 5.2 11.8 22.4 21.8 72.5 0.2 155.3-21.6 82.9-99.4 162.6-211.9 210.1-112.5 47.6-238 16.4-256.7 10.8-18.8-5.5-54.6-15.4-54.6-15.4l-11.3 30.3s3.5 6 10.4 15.2c29.4 25.8 71.7 51.7 126.6 57.3 116.2 11.8 150.3-4.5 229.3-39.1 78.9-34.5 192.7-122 224.4-199.4z" fill="#F6B71E" /><path d="M708.2 223.9l21.9 59.5 24.4-4.6-11-57.8z" fill="#976F18" /><path d="M786.6 270.6l-32.1 8.2-11-57.8 36.8-19.4" fill="#583026" /><path d="M708.2 223.9l35.3-2.9 36.8-19.4-35.6 0.1z" fill="#A36050" /><path d="M236.4 598.5l-12.6-0.8-8.1 9.9-8.2 28.2 9.4 13.5 10.3-38.5z" fill="#583026" /><path d="M729.6 250.5s33.6 34.6 39.7 60.9c6.1 26.3-2.9 142.6-37 206.7s-94 133.3-184.3 160.3c-90.2 27-110.7 33.5-127.4 44-16.7 10.5-43.3 17.6-43.3 17.6l-4 12.7s37.1-1.5 56.7-1.9c19.6-0.4 148.6-8.7 241.4-88.2 92.8-79.5 142.8-179 138.2-264.5-4.6-85.5-29.3-130.2-47.3-148l-32.7 0.4z" fill="#FFE361" /><path d="M812.7 264.2c-13.3-17-26-56.4-26-56.4s-7 14.2-8.7 21c-1.7 6.7-15.8 21.3-15.8 21.3 18 17.7 42.7 62.5 47.3 148 4.6 85.5-45.4 185-138.2 264.5-92.8 79.4-221.8 87.8-241.3 88.2-19.5 0.4-56.7 1.9-56.7 1.9l-1.6 32.3s91.7 54.4 201 42.1c98-11 138.8-31.8 208.3-93.1 82.1-72.4 140.4-178.5 146.5-261.9 4-55-15.6-108.9-52.5-151.4-23.9-27.7-49-39.5-62.3-56.5z" fill="#CD9E08" /><path d="M839.2 287.9c-10.7-8.3-20-15.4-26.5-23.7-0.5-0.7-1.1-1.4-1.6-2.2-12.9-10.2-24.3-18.2-31.9-27.9-0.7-0.9-1.4-1.9-2.1-2.9-3.6 7.3-14.9 18.8-14.9 18.8 18 17.7 42.7 62.5 47.3 148 4.6 85.5-45.4 185-138.2 264.5-92.8 79.5-221.8 87.9-241.3 88.3-19.5 0.4-56.7 1.9-56.7 1.9l-0.9 18.5c36.4 14.9 98.1 33.5 166.8 25.8 98-11 138.8-31.8 208.3-93.1 82-72.4 140.4-178.5 146.5-261.9 4-55-15.6-108.9-52.5-151.4-0.8-1-1.5-1.8-2.3-2.7z" fill="#F6B71E" /><path d="M719.8 237.8l38.9 50.1 21.9-11.8-28-51.7z" fill="#976F18" /><path d="M808.8 258.6l-28.2 17.5-28-51.7 29.2-29.6" fill="#583026" /><path d="M719.8 237.8l32.8-13.4 29.2-29.6-33.9 10.9z" fill="#A36050" /><path d="M384.1 737.9l-12.4 3.1-4.9 11.8 0.5 29.3 11.8 8.6-0.9-38.2z" fill="#583026" /></svg>